# xmcd
#
# Track frame offsets: 
#        150
#        12557
#        31419
#        37409
#        41424
#        57828
#        61648
#        63441
#        66744
#        103181
#        111556
#        125366
#        138429
#        141284
#        145001
#
# Disc length: 2093 seconds
#
# Revision: 0
# Processed by: cddbd v1.4PL0 Copyright (c) Steve Scherf et al.
# Submitted via: ExactAudioCopy v0.90b4
#
DISCID=eb082b0f
DTITLE=Barry Martin - Butt Scootin' Doggie
DYEAR=1900
DGENRE=Comedy
TTITLE0=Butt Scootin' Doggie
TTITLE1=Since The Baby Came
TTITLE2=Welcome
TTITLE3=My Job
TTITLE4=TV News and Weather
TTITLE5=News From Prison
TTITLE6=Good News, Bad News
TTITLE7=Fishin'
TTITLE8=The Hospital, My Wife, Etc...
TTITLE9=Kids and Toys
TTITLE10=My Daughter
TTITLE11=Exercise and Weight
TTITLE12=The Doctor
TTITLE13=Dogs
TTITLE14=We Need A Woman In A Stock Car
EXTD=
EXTT0=
EXTT1=
EXTT2=
EXTT3=
EXTT4=
EXTT5=
EXTT6=
EXTT7=
EXTT8=
EXTT9=
EXTT10=
EXTT11=
EXTT12=
EXTT13=
EXTT14=
PLAYORDER=
